<svg xmlns:dc="http://purl.org/dc/elements/1.1/" xmlns:cc="http://creativecommons.org/ns#" xmlns:rdf="http://www.w3.org/1999/02/22-rdf-syntax-ns#" xmlns:svg="http://www.w3.org/2000/svg" xmlns="http://www.w3.org/2000/svg" xmlns:sodipodi="http://sodipodi.sourceforge.net/DTD/sodipodi-0.dtd" xmlns:inkscape="http://www.inkscape.org/namespaces/inkscape" viewBox="0 0 6.3499999 7.93750025" version="1.1" x="0px" y="0px"><g transform="translate(0,-290.64999)"><path d="m 2.1171801,291.44348 c -0.3417199,0 -0.63413,0.2232 -0.7451699,0.52917 h -0.31316 a 0.2648413,0.2648413 0 1 0 0,0.52968 h 0.31264 c 0.11048,0.30648 0.40323,0.52917 0.7456899,0.52917 0.34248,0 0.63419,-0.22267 0.74414,-0.52917 h 2.4298298 a 0.2648413,0.2648413 0 0 0 0,-0.52968 H 2.8602901 c -0.11056,-0.30591 -0.40143,-0.52917 -0.74311,-0.52917 z m 0,0.52917 c 0.1493,0 0.26355,0.11683 0.26355,0.26613 0,0.14931 -0.11425,0.26355 -0.26355,0.26355 -0.1493,0 -0.26562,-0.11424 -0.26562,-0.26355 0,-0.1493 0.11632,-0.26613 0.26562,-0.26613 z m 2.1156298,1.05833 c -0.34168,0 -0.6325499,0.22325 -0.7430997,0.52917 h -2.43086 a 0.26484149,0.26484149 0 1 0 0,0.52968 h 2.4298199 c 0.10996,0.3065 0.40167,0.52917 0.7441398,0.52917 0.34246,0 0.6352101,-0.22269 0.7457001,-0.52917 h 0.3126399 a 0.26484149,0.26484149 0 1 0 0,-0.52968 H 4.9779901 C 4.86695,293.25418 4.5745302,293.03098 4.2328099,293.03098 Z m 0,0.52917 c 0.1493102,0 0.26562,0.11683 0.26562,0.26613 0,0.14931 -0.1163098,0.26355 -0.26562,0.26355 -0.1492998,0 -0.2635498,-0.11424 -0.2635498,-0.26355 0,-0.1493 0.11425,-0.26613 0.2635498,-0.26613 z m -2.1156298,1.05833 c -0.3417199,0 -0.63413,0.2232 -0.7451699,0.52917 h -0.31316 a 0.26484149,0.26484149 0 1 0 0,0.52968 h 0.31264 c 0.11048,0.30648 0.40323,0.52917 0.7456899,0.52917 0.34248,0 0.63419,-0.22267 0.74414,-0.52917 h 2.4298298 a 0.26484149,0.26484149 0 1 0 0,-0.52968 H 2.8602901 c -0.11056,-0.30592 -0.40143,-0.52917 -0.74311,-0.52917 z m 0,0.52917 c 0.1493,0 0.26355,0.11683 0.26355,0.26613 0,0.14931 -0.11425,0.26355 -0.26355,0.26355 -0.1493,0 -0.26562,-0.11424 -0.26562,-0.26355 0,-0.1493 0.11632,-0.26613 0.26562,-0.26613 z" style="color:#000000;font-style:normal;font-variant:normal;font-weight:normal;font-stretch:normal;font-size:medium;line-height:normal;font-family:sans-serif;font-variant-ligatures:normal;font-variant-position:normal;font-variant-caps:normal;font-variant-numeric:normal;font-variant-alternates:normal;font-feature-settings:normal;text-indent:0;text-align:start;text-decoration:none;text-decoration-line:none;text-decoration-style:solid;text-decoration-color:#000000;letter-spacing:normal;word-spacing:normal;text-transform:none;writing-mode:lr-tb;direction:ltr;text-orientation:mixed;dominant-baseline:auto;baseline-shift:baseline;text-anchor:start;white-space:normal;shape-padding:0;clip-rule:nonzero;display:inline;overflow:visible;visibility:visible;opacity:1;isolation:auto;mix-blend-mode:normal;color-interpolation:sRGB;color-interpolation-filters:linearRGB;solid-color:#000000;solid-opacity:1;vector-effect:none;fill:#000000;fill-opacity:1;fill-rule:evenodd;stroke:none;stroke-width:0.5291667;stroke-linecap:round;stroke-linejoin:miter;stroke-miterlimit:4;stroke-dasharray:none;stroke-dashoffset:0;stroke-opacity:1;color-rendering:auto;image-rendering:auto;shape-rendering:auto;text-rendering:auto;enable-background:accumulate"/></g></svg>